<svg width="254" height="162" viewBox="0 0 254 162" fill="none" xmlns="http://www.w3.org/2000/svg">
<path d="M0.875732 85.5227H50.1712V107H62.2394V85.5227H76.5576V74.2727H62.2394V2.27273H46.8985L0.875732 75.0909V85.5227ZM50.1712 74.2727H14.5803V73.4546L49.353 18.4318H50.1712V74.2727Z" fill="black"/>
<path d="M127 108.432C150.114 108.432 163.409 88.8466 163.409 54.6364C163.409 20.6818 149.909 0.840912 127 0.840912C104.091 0.840912 90.5909 20.6818 90.5909 54.6364C90.5909 88.8466 103.886 108.432 127 108.432ZM127 97.1818C111.761 97.1818 102.864 81.8921 102.864 54.6364C102.864 27.4318 111.864 11.8864 127 11.8864C142.136 11.8864 151.136 27.4318 151.136 54.6364C151.136 81.8921 142.239 97.1818 127 97.1818Z" fill="black"/>
<path d="M177.506 85.5227H226.802V107H238.87V85.5227H253.188V74.2727H238.87V2.27273H223.529L177.506 75.0909V85.5227ZM226.802 74.2727H191.211V73.4546L225.984 18.4318H226.802V74.2727Z" fill="black"/>
<circle cx="45.4025" cy="140.598" r="21.4025" fill="#F6F0EF"/>
<path d="M45.4025 119C33.5793 119 24 128.579 24 140.402C24 152.226 33.5793 161.805 45.4025 161.805C57.2256 161.805 66.8049 152.226 66.8049 140.402C66.8049 128.579 57.2256 119 45.4025 119ZM45.4025 157.663C35.8835 157.663 28.1424 149.921 28.1424 140.402C28.1424 130.884 35.8835 123.142 45.4025 123.142C54.9214 123.142 62.6625 130.884 62.6625 140.402C62.6625 149.921 54.9214 157.663 45.4025 157.663ZM38.4984 139.022C40.026 139.022 41.26 137.788 41.26 136.26C41.26 134.733 40.026 133.498 38.4984 133.498C36.9709 133.498 35.7368 134.733 35.7368 136.26C35.7368 137.788 36.9709 139.022 38.4984 139.022ZM52.3065 133.498C50.779 133.498 49.5449 134.733 49.5449 136.26C49.5449 137.788 50.779 139.022 52.3065 139.022C53.834 139.022 55.0681 137.788 55.0681 136.26C55.0681 134.733 53.834 133.498 52.3065 133.498ZM45.4025 142.761C41.9332 142.761 38.671 144.289 36.4445 146.956C35.7109 147.836 35.8318 149.139 36.712 149.872C37.5923 150.597 38.8954 150.485 39.629 149.605C41.0616 147.888 43.1673 146.895 45.4025 146.895C47.6376 146.895 49.7434 147.879 51.1759 149.605C51.875 150.442 53.1695 150.632 54.0929 149.872C54.9732 149.139 55.0853 147.836 54.3604 146.956C52.1339 144.289 48.8717 142.761 45.4025 142.761Z" fill="black"/>
<path d="M95.4844 134.545H91.8111V145.523H91.6577L84.1236 134.545H80.885V152H84.5754V141.014H84.7032L92.2969 152H95.4844V134.545Z" fill="black"/>
<path d="M115.773 143.273C115.773 137.563 112.228 134.307 107.6 134.307C102.947 134.307 99.4266 137.563 99.4266 143.273C99.4266 148.957 102.947 152.239 107.6 152.239C112.228 152.239 115.773 148.983 115.773 143.273ZM112.032 143.273C112.032 146.972 110.276 148.974 107.6 148.974C104.915 148.974 103.168 146.972 103.168 143.273C103.168 139.574 104.915 137.571 107.6 137.571C110.276 137.571 112.032 139.574 112.032 143.273Z" fill="black"/>
<path d="M118.269 137.588H123.612V152H127.26V137.588H132.604V134.545H118.269V137.588Z" fill="black"/>
<path d="M142.919 152H146.61V144.79H153.709V141.747H146.61V137.588H154.476V134.545H142.919V152Z" fill="black"/>
<path d="M174.198 143.273C174.198 137.563 170.653 134.307 166.025 134.307C161.372 134.307 157.852 137.563 157.852 143.273C157.852 148.957 161.372 152.239 166.025 152.239C170.653 152.239 174.198 148.983 174.198 143.273ZM170.457 143.273C170.457 146.972 168.701 148.974 166.025 148.974C163.34 148.974 161.593 146.972 161.593 143.273C161.593 139.574 163.34 137.571 166.025 137.571C168.701 137.571 170.457 139.574 170.457 143.273Z" fill="black"/>
<path d="M188.913 134.545V145.565C188.913 147.56 187.515 149 185.368 149C183.228 149 181.822 147.56 181.822 145.565V134.545H178.132V145.881C178.132 149.699 181.013 152.247 185.368 152.247C189.706 152.247 192.603 149.699 192.603 145.881V134.545H188.913Z" fill="black"/>
<path d="M211.439 134.545H207.766V145.523H207.612L200.078 134.545H196.84V152H200.53V141.014H200.658L208.252 152H211.439V134.545Z" fill="black"/>
<path d="M221.876 152C227.194 152 230.415 148.71 230.415 143.256C230.415 137.818 227.194 134.545 221.927 134.545H215.688V152H221.876ZM219.378 148.838V137.707H221.731C225.003 137.707 226.734 139.378 226.734 143.256C226.734 147.151 225.003 148.838 221.722 148.838H219.378Z" fill="black"/>
</svg>
