<svg width="20" height="20" viewBox="0 0 20 20" fill="none" xmlns="http://www.w3.org/2000/svg">
<path fill-rule="evenodd" clip-rule="evenodd" d="M10 0.5C10.2761 0.5 10.5 0.723858 10.5 1L10.5 19C10.5 19.2761 10.2761 19.5 10 19.5C9.72386 19.5 9.5 19.2761 9.5 19L9.5 1C9.5 0.723858 9.72386 0.5 10 0.5Z" fill="black"/>
<path fill-rule="evenodd" clip-rule="evenodd" d="M19.5 10C19.5 10.2761 19.2761 10.5 19 10.5L1 10.5C0.723858 10.5 0.5 10.2761 0.5 10C0.5 9.72386 0.723858 9.5 1 9.5L19 9.5C19.2761 9.5 19.5 9.72386 19.5 10Z" fill="black"/>
</svg>
