<svg width="24" height="24" viewBox="0 0 24 24" fill="none" xmlns="http://www.w3.org/2000/svg">
<path fill-rule="evenodd" clip-rule="evenodd" d="M12 3C12.3824 3 12.6923 3.30996 12.6923 3.69231L12.6923 20.3077C12.6923 20.69 12.3824 21 12 21C11.6176 21 11.3077 20.69 11.3077 20.3077L11.3077 3.69231C11.3077 3.30996 11.6176 3 12 3Z" fill="black"/>
<path fill-rule="evenodd" clip-rule="evenodd" d="M21 12C21 12.3824 20.69 12.6923 20.3077 12.6923L3.69231 12.6923C3.30996 12.6923 3 12.3823 3 12C3 11.6176 3.30996 11.3077 3.69231 11.3077L20.3077 11.3077C20.69 11.3077 21 11.6176 21 12Z" fill="black"/>
</svg>
