<svg width="13" height="16" viewBox="0 0 13 16" fill="none" xmlns="http://www.w3.org/2000/svg">
<path fill-rule="evenodd" clip-rule="evenodd" d="M0.500001 0.5C0.776143 0.5 1 0.723858 1 1L1 15C1 15.2761 0.776142 15.5 0.5 15.5C0.223858 15.5 -1.20696e-08 15.2761 0 15L6.11957e-07 1C6.24028e-07 0.723858 0.223858 0.5 0.500001 0.5Z" fill="black"/>
<path fill-rule="evenodd" clip-rule="evenodd" d="M12.8536 14.946C13.0489 14.7507 13.0489 14.4341 12.8536 14.2389L6.0975 7.48274C5.90224 7.28748 5.58565 7.28748 5.39039 7.48274C5.19513 7.678 5.19513 7.99458 5.39039 8.18984L12.1465 14.946C12.3418 15.1412 12.6584 15.1412 12.8536 14.946Z" fill="black"/>
<path fill-rule="evenodd" clip-rule="evenodd" d="M12.8536 0.646447C13.0489 0.841709 13.0489 1.15829 12.8536 1.35355L6.0975 8.10967C5.90224 8.30493 5.58565 8.30493 5.39039 8.10967C5.19513 7.91441 5.19513 7.59782 5.39039 7.40256L12.1465 0.646447C12.3418 0.451184 12.6584 0.451184 12.8536 0.646447Z" fill="black"/>
</svg>
