<svg width="13" height="16" viewBox="0 0 13 16" fill="none" xmlns="http://www.w3.org/2000/svg">
<path fill-rule="evenodd" clip-rule="evenodd" d="M12.5 0.5C12.2239 0.5 12 0.723858 12 1L12 15C12 15.2761 12.2239 15.5 12.5 15.5C12.7761 15.5 13 15.2761 13 15L13 1C13 0.723858 12.7761 0.5 12.5 0.5Z" fill="black"/>
<path fill-rule="evenodd" clip-rule="evenodd" d="M0.146386 14.946C-0.0488758 14.7507 -0.0488758 14.4341 0.146386 14.2389L6.9025 7.48274C7.09776 7.28748 7.41435 7.28748 7.60961 7.48274C7.80487 7.678 7.80487 7.99458 7.60961 8.18984L0.853493 14.946C0.658231 15.1412 0.341648 15.1412 0.146386 14.946Z" fill="black"/>
<path fill-rule="evenodd" clip-rule="evenodd" d="M0.146386 0.646447C-0.0488758 0.841709 -0.0488758 1.15829 0.146386 1.35355L6.9025 8.10967C7.09776 8.30493 7.41435 8.30493 7.60961 8.10967C7.80487 7.91441 7.80487 7.59782 7.60961 7.40256L0.853493 0.646447C0.658231 0.451184 0.341648 0.451184 0.146386 0.646447Z" fill="black"/>
</svg>
