<svg width="80" height="85" viewBox="0 0 80 85" fill="none" xmlns="http://www.w3.org/2000/svg">
<path fill-rule="evenodd" clip-rule="evenodd" d="M10 25H70C75.5228 25 80 29.4771 80 35V75C80 80.5229 75.5229 85 70 85H10C4.47716 85 0 80.5229 0 75V35C0 29.4772 4.47715 25 10 25ZM10 30C7.23858 30 5 32.2386 5 35V75C5 77.7614 7.23858 80 10 80H70C72.7614 80 75 77.7614 75 75V35C75 32.2386 72.7614 30 70 30H10Z" fill="black"/>
<path fill-rule="evenodd" clip-rule="evenodd" d="M37.3569 5.24827C32.7987 6.12494 29.0129 9.18817 26.9607 11.782C26.1039 12.8648 24.5317 13.048 23.4489 12.1913C22.3661 11.3346 22.1828 9.76234 23.0396 8.67956C25.6027 5.44003 30.3553 1.50325 36.4125 0.338259C42.6828 -0.867696 49.8717 0.989231 56.8371 8.53506C57.7736 9.54962 57.7104 11.1313 56.6958 12.0678C55.6813 13.0043 54.0996 12.941 53.1631 11.9265C47.2054 5.4723 41.7021 4.41256 37.3569 5.24827Z" fill="black"/>
<path fill-rule="evenodd" clip-rule="evenodd" d="M25 7.73135C26.3807 7.73135 27.5 8.85064 27.5 10.2314V45.2314C27.5 46.6121 26.3807 47.7314 25 47.7314C23.6193 47.7313 22.5 46.6121 22.5 45.2314L22.5 10.2314C22.5 8.85064 23.6193 7.73135 25 7.73135Z" fill="black"/>
<path fill-rule="evenodd" clip-rule="evenodd" d="M55 7.73135C56.3807 7.73135 57.5 8.85064 57.5 10.2314V45.2314C57.5 46.6121 56.3807 47.7314 55 47.7314C53.6193 47.7313 52.5 46.6121 52.5 45.2314V10.2314C52.5 8.85064 53.6193 7.73135 55 7.73135Z" fill="black"/>
<path d="M32.7616 59.5232C34.2891 59.5232 35.5232 58.2891 35.5232 56.7616C35.5232 55.2341 34.2891 54 32.7616 54C31.2341 54 30 55.2341 30 56.7616C30 58.2891 31.2341 59.5232 32.7616 59.5232ZM46.5696 54C45.0421 54 43.808 55.2341 43.808 56.7616C43.808 58.2891 45.0421 59.5232 46.5696 59.5232C48.0972 59.5232 49.3313 58.2891 49.3313 56.7616C49.3313 55.2341 48.0972 54 46.5696 54ZM39.6656 63.2629C36.1964 63.2629 32.9342 64.7904 30.7077 67.4571C29.9741 68.3373 30.0949 69.6405 30.9752 70.374C31.8555 71.099 33.1586 70.9868 33.8921 70.1065C35.3247 68.3891 37.4305 67.3967 39.6656 67.3967C41.9008 67.3967 44.0065 68.3805 45.4391 70.1065C46.1381 70.9436 47.4327 71.1335 48.3561 70.374C49.2363 69.6405 49.3485 68.3373 48.6236 67.4571C46.397 64.7904 43.1349 63.2629 39.6656 63.2629Z" fill="black"/>
</svg>
