<svg width="24" height="24" viewBox="0 0 24 24" fill="none" xmlns="http://www.w3.org/2000/svg">
<path fill-rule="evenodd" clip-rule="evenodd" d="M3.82353 7.05882H20.7647C22.3241 7.05882 23.5882 8.32296 23.5882 9.88235V21.1765C23.5882 22.7359 22.3241 24 20.7647 24H3.82353C2.26414 24 1 22.7359 1 21.1765V9.88235C1 8.32296 2.26414 7.05882 3.82353 7.05882ZM3.82353 8.47059C3.04383 8.47059 2.41176 9.10266 2.41176 9.88235V21.1765C2.41176 21.9562 3.04383 22.5882 3.82353 22.5882H20.7647C21.5444 22.5882 22.1765 21.9562 22.1765 21.1765V9.88235C22.1765 9.10266 21.5444 8.47059 20.7647 8.47059H3.82353Z" fill="black"/>
<path fill-rule="evenodd" clip-rule="evenodd" d="M11.5478 1.48186C10.2608 1.7294 9.19188 2.59431 8.61242 3.32667C8.37053 3.6324 7.92659 3.68415 7.62086 3.44225C7.31514 3.20036 7.26339 2.75643 7.50529 2.4507C8.229 1.53601 9.57091 0.424447 11.2812 0.0955085C13.0516 -0.244997 15.0814 0.279312 17.0481 2.4099C17.3126 2.69636 17.2947 3.14295 17.0082 3.40737C16.7218 3.6718 16.2752 3.65393 16.0108 3.36747C14.3286 1.54512 12.7747 1.2459 11.5478 1.48186Z" fill="black"/>
<path fill-rule="evenodd" clip-rule="evenodd" d="M8.05882 2.18297C8.44867 2.18297 8.76471 2.499 8.76471 2.88885V8.08074C8.76471 8.47059 8.44867 7.37486 8.05882 7.37486C7.66898 7.37486 7.35294 8.47059 7.35294 8.08074L7.35294 2.88885C7.35294 2.499 7.66898 2.18297 8.05882 2.18297Z" fill="black"/>
<path fill-rule="evenodd" clip-rule="evenodd" d="M16.5294 2.18297C16.9193 2.18297 17.2353 2.499 17.2353 2.88885V8.08074C17.2353 8.47059 16.9193 7.37486 16.5294 7.37486C16.1396 7.37486 15.8235 8.47059 15.8235 8.08074V2.88885C15.8235 2.499 16.1396 2.18297 16.5294 2.18297Z" fill="black"/>
</svg>
