<svg width="22" height="22" viewBox="0 0 22 22" fill="none" xmlns="http://www.w3.org/2000/svg">
<path fill-rule="evenodd" clip-rule="evenodd" d="M9.84218 15.4851C9.78437 15.5935 9.69883 15.6892 9.58813 15.7604C9.24202 15.9834 8.78071 15.8836 8.55779 15.5373L5.39881 10.6321C5.1759 10.2859 5.27579 9.82458 5.62194 9.60168C5.96808 9.37878 6.42939 9.47866 6.65232 9.82485L9.28761 13.9168L15.4272 7.27927C15.7069 6.97704 16.1785 6.95865 16.4807 7.23822C16.7829 7.5178 16.8014 7.98944 16.5218 8.29169L9.96987 15.3749C9.9308 15.4172 9.88786 15.4539 9.84218 15.4851Z" fill="#8E1013"/>
<path fill-rule="evenodd" clip-rule="evenodd" d="M11 21.12C16.5891 21.12 21.12 16.5891 21.12 11C21.12 5.41088 16.5891 0.88 11 0.88C5.41088 0.88 0.88 5.41088 0.88 11C0.88 16.5891 5.41088 21.12 11 21.12ZM11 22C17.0752 22 22 17.0752 22 11C22 4.92487 17.0752 0 11 0C4.92487 0 0 4.92487 0 11C0 17.0752 4.92487 22 11 22Z" fill="#8E1013"/>
</svg>
