<svg width="24" height="24" viewBox="0 0 24 24" fill="none" xmlns="http://www.w3.org/2000/svg">
<path fill-rule="evenodd" clip-rule="evenodd" d="M19 1H5C2.79086 1 1 2.79086 1 5V19C1 21.2091 2.79086 23 5 23H19C21.2091 23 23 21.2091 23 19V5C23 2.79086 21.2091 1 19 1ZM5 0C2.23858 0 0 2.23858 0 5V19C0 21.7614 2.23858 24 5 24H19C21.7614 24 24 21.7614 24 19V5C24 2.23858 21.7614 0 19 0H5Z" fill="#707070"/>
<path fill-rule="evenodd" clip-rule="evenodd" d="M10.1706 18.2042C10.0931 18.3497 9.97837 18.478 9.82989 18.5736C9.36556 18.8727 8.74674 18.7387 8.44771 18.2743L4.21016 11.6942C3.91113 11.2299 4.04514 10.6111 4.50947 10.3121C4.9738 10.013 5.59262 10.147 5.89165 10.6114L9.42666 16.1006L17.6626 7.1967C18.0377 6.79127 18.6704 6.76661 19.0758 7.14163C19.4812 7.51666 19.5059 8.14934 19.1309 8.55478L10.342 18.0564C10.2895 18.1131 10.2319 18.1624 10.1706 18.2042Z" fill="black"/>
</svg>
