<svg width="24" height="24" viewBox="0 0 24 24" fill="none" xmlns="http://www.w3.org/2000/svg">
<path fill-rule="evenodd" clip-rule="evenodd" d="M12 23.3143C18.2487 23.3143 23.3143 18.2487 23.3143 12C23.3143 5.75129 18.2487 0.685714 12 0.685714C5.75129 0.685714 0.685714 5.75129 0.685714 12C0.685714 18.2487 5.75129 23.3143 12 23.3143ZM12 24C18.6274 24 24 18.6274 24 12C24 5.37258 18.6274 0 12 0C5.37258 0 0 5.37258 0 12C0 18.6274 5.37258 24 12 24Z" fill="black"/>
<path fill-rule="evenodd" clip-rule="evenodd" d="M6.36946 12.5905C6.57953 12.4437 6.86902 12.4947 7.01607 12.7045L9.61606 16.4133C9.7631 16.6231 9.71202 16.9122 9.50195 17.059C9.29189 17.2058 9.00239 17.1548 8.85535 16.9451L6.25535 13.2362C6.10831 13.0264 6.1594 12.7374 6.36946 12.5905Z" fill="black"/>
<path fill-rule="evenodd" clip-rule="evenodd" d="M8.91816 17.0174C8.73109 16.8423 8.72161 16.5489 8.89699 16.3621L17.2541 7.46081C17.4295 7.27402 17.7233 7.26456 17.9104 7.43968C18.0974 7.6148 18.1069 7.90818 17.9315 8.09498L9.57441 16.9963C9.39904 17.1831 9.10522 17.1925 8.91816 17.0174Z" fill="black"/>
</svg>
