<svg width="20" height="20" viewBox="0 0 20 20" fill="none" xmlns="http://www.w3.org/2000/svg">
<path d="M1.31104 0.224942C1.01112 -0.0749808 0.524858 -0.0749808 0.224939 0.224942C-0.0749797 0.524865 -0.0749797 1.01114 0.224939 1.31106L8.9139 10.0001L0.225217 18.6889C-0.0747014 18.9889 -0.0747017 19.4751 0.225217 19.7751C0.525136 20.075 1.0114 20.075 1.31132 19.7751L10 11.0863L18.6887 19.7751C18.9886 20.075 19.4749 20.075 19.7748 19.7751C20.0747 19.4751 20.0747 18.9889 19.7748 18.6889L11.0861 10.0001L19.7751 1.31106C20.075 1.01114 20.075 0.524865 19.7751 0.224942C19.4751 -0.0749808 18.9889 -0.0749808 18.689 0.224942L10 8.91402L1.31104 0.224942Z" fill="#888888"/>
</svg>
