<?xml version="1.0" encoding="UTF-8"?>
<svg width="26px" height="18px" viewBox="0 0 26 18" version="1.1" xmlns="http://www.w3.org/2000/svg" xmlns:xlink="http://www.w3.org/1999/xlink">
    <title>icon_coupon_n</title>
    <g id="android-D" stroke="none" stroke-width="1" fill="none" fill-rule="evenodd">
        <g id="[1-5]會員中心列表-已登入(A)-Copy-2" transform="translate(-176.000000, -193.000000)">
            <g id="折價券" transform="translate(156.000000, 182.000000)">
                <g id="Group" transform="translate(20.000000, 11.000000)">
                    <path d="M22.9993781,0 C24.6562324,1.39730022e-16 25.9993781,1.34314575 25.9993781,3 L25.9990902,6.80632091 C24.7630742,7.06702601 23.8328063,8.20194183 23.8328063,9.5625 C23.8328063,10.9230582 24.7630742,12.057974 25.9990902,12.3186791 L25.9993781,15 C25.9993781,16.6568542 24.6562324,18 22.9993781,18 L3.00051543,18 C1.34366119,18 0.000515434823,16.6568542 0.000515434823,15 L0.00050055826,12.3187429 C1.2366674,12.0581594 2.16708733,10.9231693 2.16708733,9.5625 C2.16708733,8.20183072 1.2366674,7.06684065 0.00050055826,6.80625705 L0.000515434823,3 C0.000515434823,1.34314575 1.34366119,-5.83819232e-16 3.00051543,0 L22.9993781,0 Z" id="Combined-Shape" fill="#000000"></path>
                    <text id="%-copy" font-family="Helvetica-Bold, Helvetica" font-size="14" font-weight="bold" fill="#FFFFFF">
                        <tspan x="7.00047581" y="14">%</tspan>
                    </text>
                </g>
            </g>
        </g>
    </g>
</svg>