<svg width="20" height="24" viewBox="0 0 20 24" fill="none" xmlns="http://www.w3.org/2000/svg">
<path d="M7.16981 0C6.8566 0 6.60377 0.252579 6.60377 0.565476C6.60377 0.878373 6.8566 1.13095 7.16981 1.13095H12.8302C13.1434 1.13095 13.3962 0.878373 13.3962 0.565476C13.3962 0.252579 13.1434 0 12.8302 0H7.16981ZM2.45283 2.63889C1.1 2.63889 0 3.7378 0 5.08929C0 6.44077 1.1 7.53968 2.45283 7.53968H16.9811V19.4147C16.9811 21.1809 15.5415 22.619 13.7736 22.619H6.22642C4.45849 22.619 3.01887 21.1809 3.01887 19.4147V9.6131C3.01887 9.3002 2.76604 9.04762 2.45283 9.04762C2.13962 9.04762 1.88679 9.3002 1.88679 9.6131V19.4147C1.88679 21.8048 3.83396 23.75 6.22642 23.75H13.7736C16.166 23.75 18.1132 21.8048 18.1132 19.4147V7.47194C19.1925 7.21559 20 6.24663 20 5.08929C20 3.7378 18.9 2.63889 17.5472 2.63889H2.45283ZM2.45283 3.76984H17.5472C18.2755 3.76984 18.8679 4.36171 18.8679 5.08929C18.8679 5.81686 18.2755 6.40873 17.5472 6.40873H2.45283C1.72453 6.40873 1.13208 5.81686 1.13208 5.08929C1.13208 4.36171 1.72453 3.76984 2.45283 3.76984ZM7.35849 10.1786C7.04528 10.1786 6.79245 10.4312 6.79245 10.744V19.4147C6.79245 19.7276 7.04528 19.9802 7.35849 19.9802C7.6717 19.9802 7.92453 19.7276 7.92453 19.4147V10.744C7.92453 10.4312 7.6717 10.1786 7.35849 10.1786ZM12.6415 10.1786C12.3283 10.1786 12.0755 10.4312 12.0755 10.744V19.4147C12.0755 19.7276 12.3283 19.9802 12.6415 19.9802C12.9547 19.9802 13.2075 19.7276 13.2075 19.4147V10.744C13.2075 10.4312 12.9547 10.1786 12.6415 10.1786Z" fill="black"/>
</svg>
