<svg width="23" height="17" viewBox="0 0 23 17" fill="none" xmlns="http://www.w3.org/2000/svg">
<path d="M22.364 8.62317L17.8824 3.58211C17.6595 3.33132 17.3393 3.18748 17.0037 3.18748H12.9046V3.04979C12.9046 1.90555 11.9737 0.974609 10.8297 0.974609H2.07519C0.930944 0.974917 0 1.90586 0 3.0501V13.8373C0 14.5192 0.554756 15.074 1.23644 15.074H3.42483C3.679 16.1721 4.66312 16.994 5.83748 16.994C7.01184 16.994 7.99595 16.1721 8.25012 15.074H11.993H12.9049H16.1938C16.448 16.1721 17.4321 16.994 18.6065 16.994C19.7808 16.994 20.7649 16.1721 21.0191 15.074H21.486C22.1342 15.074 22.6616 14.5469 22.6616 13.8984V9.40443C22.6609 9.11645 22.5555 8.83892 22.364 8.62317ZM21.1897 8.6748H15.8797C15.7764 8.6748 15.6925 8.59059 15.6925 8.48732V6.09465C15.6925 5.99138 15.7764 5.90748 15.8797 5.90748H18.7294L21.1897 8.6748ZM2.07519 1.88681H10.8297C11.4709 1.88681 11.9927 2.40868 11.9927 3.0501V3.18779V10.0483H0.911889V3.0501C0.911889 2.40868 1.43376 1.88681 2.07519 1.88681ZM5.83717 16.0818C4.97353 16.0818 4.27064 15.3792 4.27064 14.5153C4.27064 13.6513 4.97353 12.9487 5.83717 12.9487C6.70081 12.9487 7.4037 13.6513 7.4037 14.5153C7.4037 15.3792 6.70111 16.0818 5.83717 16.0818ZM8.28731 14.1618C8.11489 12.9626 7.08345 12.0371 5.83717 12.0371C4.59089 12.0371 3.55944 12.9626 3.38702 14.1618H1.23644C1.05757 14.1618 0.911889 14.0161 0.911889 13.8369V10.9599H11.9927V14.1615L8.28731 14.1618ZM18.6062 16.0818C17.7422 16.0818 17.0396 15.3792 17.0396 14.5153C17.0396 13.6513 17.7422 12.9487 18.6062 12.9487C19.4701 12.9487 20.1727 13.6513 20.1727 14.5153C20.1727 15.3792 19.4698 16.0818 18.6062 16.0818ZM21.4853 14.1618H21.056C20.8836 12.9626 19.8521 12.0371 18.6058 12.0371C17.3596 12.0371 16.3281 12.9626 16.1557 14.1618H12.9046V4.09937H17.0037C17.0787 4.09937 17.1506 4.13164 17.2007 4.18789L17.9183 4.99528H15.8794C15.2733 4.99528 14.7803 5.48826 14.7803 6.09434V8.48701C14.7803 9.09309 15.2733 9.58638 15.8794 9.58638H21.7487V13.8981C21.749 14.0438 21.631 14.1618 21.4853 14.1618Z" fill="black"/>
</svg>
