<svg width="17" height="17" viewBox="0 0 17 17" fill="none" xmlns="http://www.w3.org/2000/svg">
<path d="M17 8.5C17 13.1944 13.1944 17 8.5 17C3.80558 17 0 13.1944 0 8.5C0 3.80558 3.80558 0 8.5 0C13.1944 0 17 3.80558 17 8.5Z" fill="#8E1013"/>
<path d="M9.57432 12.0799C9.57432 12.4196 9.47523 12.6862 9.27705 12.8797C9.08359 13.0731 8.80991 13.1699 8.45602 13.1699C8.10684 13.1699 7.83316 13.0755 7.63498 12.8868C7.44152 12.698 7.34479 12.4291 7.34479 12.0799C7.34479 11.7307 7.43916 11.4641 7.62791 11.2801C7.82137 11.0961 8.09741 11.004 8.45602 11.004C8.81463 11.004 9.09066 11.0984 9.28413 11.2872C9.47759 11.4759 9.57432 11.7401 9.57432 12.0799ZM9.57432 3.68554L9.24874 9.91405H7.69869L7.3731 3.68554H9.57432Z" fill="white"/>
</svg>
