<svg width="60" height="60" viewBox="0 0 60 60" fill="none" xmlns="http://www.w3.org/2000/svg">
<circle cx="30" cy="30" r="28.5" stroke="#CF93CC" stroke-width="3"/>
<path d="M33 41.8122C33 42.7978 32.7378 43.5755 32.2135 44.1453C31.6891 44.7151 30.9551 45 30.0112 45C29.0674 45 28.3258 44.7228 27.7865 44.1684C27.2622 43.614 27 42.8286 27 41.8122C27 40.7958 27.2622 40.0181 27.7865 39.4791C28.3109 38.9401 29.0524 38.6706 30.0112 38.6706C30.97 38.6706 31.7041 38.9478 32.2135 39.5022C32.7378 40.0566 33 40.8266 33 41.8122ZM32.8427 14L31.809 35.1595H28.2809L27.2247 14H32.8427Z" fill="#CF93CC"/>
</svg>
