<svg width="105" height="105" viewBox="0 0 105 105" fill="none" xmlns="http://www.w3.org/2000/svg">
<circle cx="52.5" cy="52.5" r="51" stroke="#CF93CC" stroke-width="3"/>
<path fill-rule="evenodd" clip-rule="evenodd" d="M30.5731 30.5731C31.3372 29.809 32.576 29.809 33.34 30.5731L74.4269 71.66C75.191 72.424 75.191 73.6628 74.4269 74.4269C73.6629 75.191 72.4241 75.191 71.66 74.4269L30.5731 33.34C29.809 32.5759 29.809 31.3371 30.5731 30.5731Z" fill="#CF93CC"/>
<path fill-rule="evenodd" clip-rule="evenodd" d="M74.4269 30.5731C73.6628 29.809 72.424 29.809 71.66 30.5731L30.5731 71.66C29.809 72.4241 29.809 73.6629 30.5731 74.4269C31.3371 75.191 32.5759 75.191 33.34 74.4269L74.4269 33.34C75.191 32.576 75.191 31.3372 74.4269 30.5731Z" fill="#CF93CC"/>
</svg>
