<svg width="24" height="20" viewBox="0 0 24 20" fill="none" xmlns="http://www.w3.org/2000/svg">
<path fill-rule="evenodd" clip-rule="evenodd" d="M11.5044 18.7551C11.6816 18.8332 11.8474 18.9026 12 18.9628C12.1526 18.9026 12.3183 18.8332 12.4956 18.7551C14.9091 17.6902 19.4476 14.9756 21.6636 11.0383C24.0423 6.81185 23.1956 3.00455 19.6813 1.43278C16.8889 0.183905 14.3449 1.64157 12.6947 3.14683C12.4413 3.37803 12.2089 3.61035 12 3.83415C11.791 3.61035 11.5587 3.37803 11.3052 3.14683C9.65505 1.64157 7.11109 0.183905 4.31875 1.43278C0.804419 3.00455 -0.0422546 6.81185 2.33642 11.0383C4.55237 14.9756 9.09084 17.6902 11.5044 18.7551ZM12 2.46148C11.24 1.76596 10.2851 1.0614 9.18202 0.585368C7.65921 -0.0718293 5.8272 -0.299773 3.90344 0.560624C1.87236 1.46902 0.566094 3.05902 0.146652 5.04766C-0.266326 7.00566 0.198936 9.24637 1.4663 11.4982C2.74705 13.7739 4.72287 15.6323 6.62769 17.0226C8.53537 18.4149 10.4312 19.3806 11.626 19.8523L12 20L12.3739 19.8523C13.5687 19.3806 15.4646 18.4149 17.3723 17.0226C19.2771 15.6323 21.2529 13.7739 22.5337 11.4982C23.8011 9.24637 24.2663 7.00566 23.8534 5.04766C23.4339 3.05902 22.1277 1.46902 20.0966 0.560624C18.1728 -0.299774 16.3408 -0.0718282 14.8179 0.585368C13.7149 1.0614 12.7599 1.76596 12 2.46148Z" fill="#37383D"/>
</svg>
