<svg width="23" height="23" viewBox="0 0 23 23" fill="none" xmlns="http://www.w3.org/2000/svg">
<path d="M22.9465 8.94683L22.9396 8.8878C22.9395 8.88679 22.9394 8.88602 22.9393 8.88501C22.9392 8.88416 22.9391 8.88338 22.9389 8.88253L22.9123 8.66085C22.9069 8.61633 22.9008 8.5656 22.8938 8.50774L22.8882 8.46166L22.8768 8.46306C22.5963 6.86748 21.8256 5.35327 20.632 4.06035C19.4439 2.77364 17.9004 1.7577 16.1683 1.12237C14.6842 0.578023 13.1096 0.301971 11.4883 0.301971C9.29942 0.301971 7.17361 0.816766 5.34076 1.79066C1.80639 3.66857 -0.278075 7.12034 0.0300103 10.5845C0.189483 12.3771 0.89175 14.0834 2.06096 15.5192C3.16144 16.8706 4.65013 17.9612 6.36601 18.673C7.42104 19.1106 8.4642 19.3169 9.56872 19.5352L9.69802 19.5608C10.0021 19.621 10.0839 19.7037 10.105 19.7364C10.144 19.7972 10.1236 19.9171 10.1079 19.9831C10.0935 20.044 10.0786 20.1047 10.0637 20.1655C9.94514 20.6491 9.82251 21.1493 9.91884 21.7007C10.0296 22.3345 10.4254 22.6981 11.0048 22.6981C11.6281 22.6981 12.3375 22.2801 12.8069 22.0035L12.8695 21.9666C13.9893 21.309 15.0441 20.5673 15.838 19.9945C17.5752 18.7412 19.5443 17.3205 21.0205 15.4826C22.507 13.6316 23.2072 11.2529 22.9465 8.94683ZM7.16252 12.4538H5.17827C4.8784 12.4538 4.63532 12.2107 4.63532 11.9109V7.74598C4.63532 7.44611 4.8784 7.20303 5.17827 7.20303C5.47813 7.20303 5.72122 7.44611 5.72122 7.74598V11.3679H7.16244C7.4623 11.3679 7.70539 11.611 7.70539 11.9109C7.70547 12.2107 7.46238 12.4538 7.16252 12.4538ZM9.23248 11.8961C9.23248 12.196 8.98939 12.4391 8.68953 12.4391C8.38966 12.4391 8.14658 12.196 8.14658 11.8961V7.73124C8.14658 7.43138 8.38966 7.18829 8.68953 7.18829C8.98939 7.18829 9.23248 7.43138 9.23248 7.73124V11.8961ZM14.1403 11.8961C14.1403 12.1314 13.9888 12.3399 13.765 12.4126C13.7098 12.4305 13.6533 12.4392 13.5974 12.4392C13.4268 12.4392 13.2621 12.3586 13.1579 12.2152L11.2028 9.52236V11.8962C11.2028 12.1961 10.9597 12.4392 10.6598 12.4392C10.36 12.4392 10.1169 12.1961 10.1169 11.8962V7.85046C10.1169 7.6152 10.2683 7.40671 10.4921 7.33403C10.716 7.26143 10.961 7.34101 11.0992 7.53143L13.0544 10.2242V7.73124C13.0544 7.43138 13.2975 7.18829 13.5973 7.18829C13.8972 7.18829 14.1403 7.43138 14.1403 7.73124V11.8961ZM18.0966 12.3536H15.4094C15.1095 12.3536 14.8664 12.1105 14.8664 11.8107V7.64576C14.8664 7.3459 15.1095 7.10281 15.4094 7.10281H18.0132C18.3131 7.10281 18.5562 7.3459 18.5562 7.64576C18.5562 7.94563 18.3131 8.18871 18.0132 8.18871H15.9523V9.18534H17.6248C17.9246 9.18534 18.1677 9.42842 18.1677 9.72829C18.1677 10.0282 17.9246 10.2712 17.6248 10.2712H15.9523V11.2677H18.0966C18.3965 11.2677 18.6396 11.5108 18.6396 11.8107C18.6396 12.1105 18.3965 12.3536 18.0966 12.3536Z" fill="white"/>
</svg>
