<?xml version="1.0" encoding="UTF-8"?>
<svg id="_圖層_1" data-name="圖層_1" xmlns="http://www.w3.org/2000/svg" version="1.1" viewBox="0 0 60 60">
  <!-- Generator: Adobe Illustrator 29.8.4, SVG Export Plug-In . SVG Version: 2.1.1 Build 6)  -->
  <defs>
    <style>
      .st0 {
        fill: #fff;
      }

      .st1 {
        fill: #57b763;
      }
    </style>
  </defs>
  <circle class="st1" cx="30" cy="30" r="30"/>
  <g>
    <path class="st0" d="M50.01,28.25c0-8.96-8.98-16.25-20.03-16.25s-20.03,7.29-20.03,16.25c0,8.03,7.12,14.76,16.75,16.03.65.14,1.54.43,1.76.99.2.51.13,1.3.06,1.81,0,0-.23,1.41-.29,1.71-.09.51-.4,1.98,1.73,1.08,2.14-.9,11.53-6.79,15.74-11.63h0c2.9-3.18,4.29-6.41,4.29-10Z"/>
    <g>
      <path class="st1" d="M43.34,33.43c.21,0,.38-.17.38-.38v-1.42c0-.21-.17-.38-.38-.38h-3.82v-1.47h3.82c.21,0,.38-.17.38-.38v-1.42c0-.21-.17-.38-.38-.38h-3.82v-1.47h3.82c.21,0,.38-.17.38-.38v-1.42c0-.21-.17-.38-.38-.38h-5.63c-.21,0-.38.17-.38.38h0v8.73h0c0,.22.17.39.38.39h5.63Z"/>
      <path class="st1" d="M22.53,33.43c.21,0,.38-.17.38-.38v-1.42c0-.21-.17-.38-.38-.38h-3.82v-6.94c0-.21-.17-.38-.38-.38h-1.42c-.21,0-.38.17-.38.38v8.73h0c0,.22.17.39.38.39h5.63Z"/>
      <rect class="st1" x="24.12" y="23.92" width="2.19" height="9.51" rx=".38" ry=".38"/>
      <path class="st1" d="M35.59,23.92h-1.42c-.21,0-.38.17-.38.38v5.19l-4-5.4s-.02-.03-.03-.04c0,0,0,0,0,0,0,0-.01-.02-.02-.02,0,0,0,0,0,0,0,0-.01-.01-.02-.02,0,0,0,0-.01,0,0,0-.01,0-.02-.01,0,0,0,0-.01,0,0,0-.01,0-.02-.01,0,0,0,0-.01,0,0,0-.01,0-.02,0,0,0,0,0-.01,0,0,0-.02,0-.02,0,0,0,0,0-.01,0,0,0-.02,0-.02,0,0,0-.01,0-.02,0,0,0-.01,0-.02,0,0,0-.01,0-.02,0,0,0,0,0-.01,0h-1.41c-.21,0-.38.17-.38.38v8.74c0,.21.17.38.38.38h1.42c.21,0,.38-.17.38-.38v-5.19l4,5.41s.06.07.1.1c0,0,0,0,0,0,0,0,.02.01.02.01,0,0,0,0,.01,0,0,0,.01,0,.02,0,0,0,.01,0,.02,0,0,0,0,0,.01,0,0,0,.02,0,.03,0,0,0,0,0,0,0,.03,0,.07.01.1.01h1.41c.21,0,.38-.17.38-.38v-8.74c0-.21-.17-.38-.38-.38Z"/>
    </g>
  </g>
</svg>