<svg width="24" height="24" viewBox="0 0 24 24" fill="none" xmlns="http://www.w3.org/2000/svg">
<path fill-rule="evenodd" clip-rule="evenodd" d="M17.6925 5.81819C17.6925 9.03149 15.0876 11.6364 11.8743 11.6364C8.661 11.6364 6.05611 9.03149 6.05611 5.81819C6.05611 2.60489 8.661 0 11.8743 0C15.0876 0 17.6925 2.60489 17.6925 5.81819ZM16.2379 5.81819C16.2379 8.22816 14.2843 10.1818 11.8743 10.1818C9.46433 10.1818 7.51066 8.22816 7.51066 5.81819C7.51066 3.40822 9.46433 1.45455 11.8743 1.45455C14.2843 1.45455 16.2379 3.40822 16.2379 5.81819Z" fill="black"/>
<path fill-rule="evenodd" clip-rule="evenodd" d="M11.3225 12.3637C11.1987 12.3634 11.0819 12.3928 10.9789 12.4452C9.8591 12.5677 8.60662 12.8448 7.50444 13.3831C6.32504 13.9592 5.26096 14.8652 4.7865 16.249L3.11968 21.1106C2.63414 22.5267 3.68649 24 5.18356 24H18.5654C20.0625 24 21.1148 22.5267 20.6293 21.1106L18.9624 16.249C18.488 14.8652 17.4239 13.9592 16.2445 13.3831C15.1423 12.8448 13.8898 12.5677 12.77 12.4452C12.667 12.3928 12.5503 12.3634 12.4265 12.3637C12.249 12.3641 12.0645 12.3682 11.8745 12.3766C11.6844 12.3682 11.4999 12.3641 11.3225 12.3637ZM11.3347 13.8711C11.4086 13.8642 11.4788 13.847 11.5443 13.8209C11.641 13.8231 11.7399 13.8264 11.8408 13.8311L11.8745 13.8326L11.9082 13.8311C12.009 13.8264 12.1079 13.8231 12.2047 13.8209C12.2701 13.847 12.3404 13.8642 12.4142 13.8711C13.4837 13.9706 14.6419 14.2191 15.6061 14.6901C16.5663 15.1591 17.2769 15.8177 17.5865 16.7208L19.2533 21.5823C19.4152 22.0544 19.0644 22.5455 18.5654 22.5455H5.18356C4.68454 22.5455 4.33375 22.0544 4.4956 21.5823L6.16243 16.7208C6.47206 15.8177 7.18268 15.1591 8.14282 14.6901C9.10709 14.2191 10.2653 13.9706 11.3347 13.8711Z" fill="black"/>
</svg>
