<svg width="24" height="24" viewBox="0 0 24 24" fill="none" xmlns="http://www.w3.org/2000/svg">
<path d="M3 3.9C3 3.40294 3.3731 3 3.83333 3H22.1667C22.6269 3 23 3.40294 23 3.9C23 4.39706 22.6269 4.8 22.1667 4.8H3.83333C3.3731 4.8 3 4.39706 3 3.9Z" fill="black"/>
<path d="M3 12C3 11.5029 3.3731 11.1 3.83333 11.1H22.1667C22.6269 11.1 23 11.5029 23 12C23 12.4971 22.6269 12.9 22.1667 12.9H3.83333C3.3731 12.9 3 12.4971 3 12Z" fill="black"/>
<path d="M3.83333 19.2C3.3731 19.2 3 19.6029 3 20.1C3 20.5971 3.3731 21 3.83333 21H22.1667C22.6269 21 23 20.5971 23 20.1C23 19.6029 22.6269 19.2 22.1667 19.2H3.83333Z" fill="black"/>
</svg>
