<svg width="22" height="22" viewBox="0 0 22 22" fill="none" xmlns="http://www.w3.org/2000/svg">
<path fill-rule="evenodd" clip-rule="evenodd" d="M6.47292 6.37071C6.75386 6.08977 7.20935 6.08977 7.49029 6.37071L15.6293 14.5097C15.9102 14.7907 15.9102 15.2462 15.6293 15.5271C15.3483 15.8081 14.8929 15.8081 14.612 15.5271L6.47292 7.38808C6.19197 7.10714 6.19197 6.65165 6.47292 6.37071Z" fill="#C4C4C4"/>
<path fill-rule="evenodd" clip-rule="evenodd" d="M15.5271 6.37071C15.2462 6.08977 14.7907 6.08977 14.5097 6.37071L6.37071 14.5097C6.08977 14.7907 6.08977 15.2462 6.37071 15.5271C6.65165 15.8081 7.10714 15.8081 7.38808 15.5271L15.5271 7.38808C15.8081 7.10714 15.8081 6.65165 15.5271 6.37071Z" fill="#C4C4C4"/>
<path fill-rule="evenodd" clip-rule="evenodd" d="M11 21.12C16.5891 21.12 21.12 16.5891 21.12 11C21.12 5.41088 16.5891 0.88 11 0.88C5.41088 0.88 0.88 5.41088 0.88 11C0.88 16.5891 5.41088 21.12 11 21.12ZM11 22C17.0752 22 22 17.0752 22 11C22 4.92487 17.0752 0 11 0C4.92487 0 0 4.92487 0 11C0 17.0752 4.92487 22 11 22Z" fill="#C4C4C4"/>
</svg>
