<svg width="40" height="40" viewBox="0 0 40 40" fill="none" xmlns="http://www.w3.org/2000/svg">
<path fill-rule="evenodd" clip-rule="evenodd" d="M20 40C31.0457 40 40 31.0457 40 20C40 8.9543 31.0457 0 20 0C8.9543 0 0 8.9543 0 20C0 31.0457 8.9543 40 20 40ZM21.8193 32.2642C22.3253 31.7613 22.5783 31.0684 22.5783 30.1854C22.5783 29.2902 22.3313 28.5973 21.8373 28.1067C21.3434 27.6161 20.6386 27.3709 19.7229 27.3709C18.8072 27.3709 18.1024 27.61 17.6084 28.0883C17.1265 28.5666 16.8855 29.2595 16.8855 30.167C16.8855 31.0746 17.1325 31.7736 17.6265 32.2642C18.1205 32.7547 18.8193 33 19.7229 33C20.6265 33 21.3253 32.7547 21.8193 32.2642ZM17.3916 24.5379H21.7108V23.5445C21.7108 22.8945 21.8373 22.3733 22.0904 21.9809C22.3554 21.5762 23.0241 20.963 24.0964 20.1413C25.6145 19.0375 26.6446 18.0441 27.1867 17.1611C27.7289 16.2781 28 15.2296 28 14.0155C28 12.2004 27.3374 10.7471 26.012 9.65563C24.6867 8.55188 22.9157 8 20.6988 8C18 8 15.4337 8.69291 13 10.0787L14.7711 13.7027C16.8434 12.6235 18.6988 12.0839 20.3373 12.0839C21.2771 12.0839 22.006 12.274 22.5241 12.6542C23.0422 13.0343 23.3012 13.5617 23.3012 14.2362C23.3012 14.9107 23.1205 15.5055 22.759 16.0206C22.3976 16.5357 21.6325 17.2225 20.4639 18.0809C19.3072 18.9394 18.506 19.7611 18.0602 20.546C17.6145 21.3309 17.3916 22.2507 17.3916 23.3054V24.5379Z" fill="#3B3B3B"/>
</svg>
