<svg width="20" height="17" viewBox="0 0 20 17" fill="none" xmlns="http://www.w3.org/2000/svg">
<path d="M17.0976 6.49322L15.3062 6.14428C15.0223 6.08897 14.7461 6.26831 14.6894 6.54484C14.6326 6.82137 14.8167 7.09037 15.1006 7.14568L17.6381 7.63998C17.8542 7.73278 18.1153 7.67382 18.2654 7.48315L19.8918 5.41684C20.0679 5.19303 20.0245 4.87251 19.7947 4.70094C19.5649 4.52936 19.2358 4.5717 19.0597 4.79551L18.0661 6.05777C17.1103 2.56943 13.8437 0 9.96096 0C5.6834 0 2.15367 3.11853 1.6377 7.14865H2.69566C3.20443 3.68431 6.26337 1.02124 9.96096 1.02124C13.4217 1.02124 16.323 3.35404 17.0976 6.49322Z" fill="black"/>
<path d="M2.9024 9.87041L4.69375 10.2194C4.97767 10.2747 5.25386 10.0953 5.31065 9.8188C5.36743 9.54227 5.1833 9.27326 4.89938 9.21796L2.36188 8.72366C2.14577 8.63085 1.88471 8.68981 1.73463 8.88048L0.108223 10.9468C-0.0679379 11.1706 -0.0244643 11.4911 0.205321 11.6627C0.435107 11.8343 0.764191 11.7919 0.94035 11.5681L1.93388 10.3059C2.88969 13.7942 6.15628 16.3636 10.039 16.3636C14.3166 16.3636 17.8463 13.2451 18.3623 9.21499H17.3043C16.7956 12.6793 13.7366 15.3424 10.039 15.3424C6.57831 15.3424 3.67704 13.0096 2.9024 9.87041Z" fill="black"/>
</svg>
