<svg width="24" height="24" viewBox="0 0 24 24" fill="none" xmlns="http://www.w3.org/2000/svg">
<path fill-rule="evenodd" clip-rule="evenodd" d="M1 9.44545C1 14.662 5.22887 18.8909 10.4454 18.8909C15.662 18.8909 19.8909 14.662 19.8909 9.44545C19.8909 4.22887 15.662 0 10.4454 0C5.22887 0 1 4.22887 1 9.44545ZM2.57424 9.44545C2.57424 13.7926 6.0983 17.3167 10.4454 17.3167C14.7926 17.3167 18.3167 13.7926 18.3167 9.44545C18.3167 5.0983 14.7926 1.57424 10.4454 1.57424C6.0983 1.57424 2.57424 5.0983 2.57424 9.44545Z" fill="black"/>
<path d="M17.2037 18.4298C16.8963 18.1224 16.8963 17.624 17.2037 17.3166C17.5111 17.0092 18.0094 17.0092 18.3168 17.3166L22.7695 21.7692C23.0768 22.0766 23.0768 22.575 22.7695 22.8824C22.4621 23.1898 21.9637 23.1898 21.6563 22.8824L17.2037 18.4298Z" fill="black"/>
</svg>
