<svg width="105" height="105" viewBox="0 0 105 105" fill="none" xmlns="http://www.w3.org/2000/svg">
<path fill-rule="evenodd" clip-rule="evenodd" d="M52.5 102C79.8381 102 102 79.8381 102 52.5C102 25.1619 79.8381 3 52.5 3C25.1619 3 3 25.1619 3 52.5C3 79.8381 25.1619 102 52.5 102ZM52.5 105C81.4949 105 105 81.4949 105 52.5C105 23.5051 81.4949 0 52.5 0C23.5051 0 0 23.5051 0 52.5C0 81.4949 23.5051 105 52.5 105Z" fill="#CF93CC"/>
<path fill-rule="evenodd" clip-rule="evenodd" d="M27.8666 55.0835C28.7856 54.4412 30.0522 54.6643 30.6955 55.582L42.0704 71.8084C42.7138 72.7261 42.4903 73.9908 41.5712 74.6332C40.6522 75.2756 39.3856 75.0524 38.7423 74.1347L27.3674 57.9083C26.724 56.9906 26.9475 55.7259 27.8666 55.0835Z" fill="#CF93CC"/>
<path fill-rule="evenodd" clip-rule="evenodd" d="M39.0171 74.4513C38.1987 73.6851 38.1572 72.4015 38.9245 71.5843L75.4869 32.6411C76.2541 31.8238 77.5396 31.7824 78.358 32.5486C79.1764 33.3147 79.2179 34.5983 78.4506 35.4155L41.8882 74.3588C41.121 75.176 39.8355 75.2174 39.0171 74.4513Z" fill="#CF93CC"/>
</svg>
