<svg width="19" height="21" viewBox="0 0 19 21" fill="none" xmlns="http://www.w3.org/2000/svg">
<path d="M3.29052 15.0598V20.9069H2.11533V15.0598H0V14.1034H5.40585V15.0598H3.29052Z" fill="black"/>
<path d="M11.4424 17.4948C11.4424 16.6573 11.2657 16.0249 10.9122 15.5975C10.5587 15.1667 10.0322 14.9513 9.33253 14.9513C8.63288 14.9513 8.10268 15.1667 7.74193 15.5975C7.38117 16.0283 7.2008 16.6625 7.2008 17.5C7.2008 18.3341 7.37935 18.9682 7.73646 19.4025C8.09722 19.8333 8.62742 20.0487 9.32706 20.0487C10.7373 20.0487 11.4424 19.1974 11.4424 17.4948ZM11.8141 14.9202C12.4008 15.5303 12.6941 16.3885 12.6941 17.4948C12.6941 18.6012 12.4008 19.4628 11.8141 20.0798C11.231 20.6933 10.3984 21 9.31613 21C8.23751 21 7.40668 20.695 6.82365 20.0849C6.24425 19.4749 5.95455 18.6081 5.95455 17.4845C5.95455 16.3609 6.24607 15.4993 6.82911 14.8996C7.41215 14.2999 8.24116 14 9.31613 14C10.3948 14 11.2274 14.3067 11.8141 14.9202Z" fill="black"/>
<path d="M15.4143 15.034V17.4276H16.0374C16.6423 17.4276 17.0851 17.3294 17.3657 17.1329C17.6463 16.933 17.7866 16.6297 17.7866 16.223C17.7866 15.8129 17.659 15.513 17.4039 15.3235C17.1525 15.1305 16.7608 15.034 16.2287 15.034H15.4143ZM16.3107 14.1034C17.2035 14.1034 17.874 14.2775 18.3222 14.6256C18.7741 14.9702 19 15.4906 19 16.1869C19 16.8796 18.754 17.4156 18.2621 17.7947C17.7738 18.1738 17.0742 18.3634 16.1632 18.3634H15.4143V20.9069H14.2391V14.1034H16.3107Z" fill="black"/>
<path fill-rule="evenodd" clip-rule="evenodd" d="M9 2.51457e-08C9.36819 2.51457e-08 9.66667 0.307804 9.66667 0.6875V10.3125C9.66667 10.6922 9.36819 11 9 11C8.63181 11 8.33333 10.6922 8.33333 10.3125V0.6875C8.33333 0.307804 8.63181 2.51457e-08 9 2.51457e-08Z" fill="black"/>
<path fill-rule="evenodd" clip-rule="evenodd" d="M8.5286 0.201364C8.78895 -0.0671214 9.21105 -0.0671214 9.4714 0.201364L14.8047 5.70136C15.0651 5.96985 15.0651 6.40515 14.8047 6.67364C14.5444 6.94212 14.1223 6.94212 13.8619 6.67364L9 1.65977L4.13807 6.67364C3.87772 6.94212 3.45561 6.94212 3.19526 6.67364C2.93491 6.40515 2.93491 5.96985 3.19526 5.70136L8.5286 0.201364Z" fill="black"/>
</svg>
