<svg width="72" height="21" viewBox="0 0 72 21" fill="none" xmlns="http://www.w3.org/2000/svg">
<path fill-rule="evenodd" clip-rule="evenodd" d="M34.3945 19.6571H32.1222V20.037H37.2067V19.6571H34.8264L37.7982 12.4003H44.2208L47.3241 19.6571H44.8358V20.037L60.9483 20.0371V19.6571H58.4601V10.2346H60.2535C62.7136 10.2346 63.5164 12.1296 64 14.243H64.3474V5.82261H64C63.4882 8.25896 62.5821 9.85471 59.9577 9.85471H58.4601V1.13511H62.5023C65.3943 1.13511 66.5681 2.81159 67.5868 5.38568H67.9343V0.75517H52.1173V1.13511H54.5774V19.6571L51.526 19.6571L43.094 0H42.371L34.3945 19.6571ZM37.9297 12.0203L40.925 4.63051L44.0846 12.0203H37.9297Z" fill="black"/>
<path fill-rule="evenodd" clip-rule="evenodd" d="M2.46479 1.13503H0V0.755091H2.46479C3.24846 0.755091 4.03212 0.733996 4.81279 0.712981C4.9394 0.709573 5.06605 0.706164 5.1925 0.70285C5.64848 0.70285 6.10447 0.695708 6.55987 0.688574C7.01409 0.68146 7.46773 0.674354 7.9202 0.674354C12.7371 0.674354 19.6714 2.43632 19.6714 10.3913C19.6714 18.3463 12.6573 20.113 8.53992 20.113C7.65088 20.113 6.76543 20.0913 5.89602 20.07L5.51644 20.0607C5.00718 20.0607 4.49909 20.0536 3.991 20.0465C3.48279 20.0394 2.97418 20.0322 2.46479 20.0322H0V19.6523H2.46479V1.13503ZM6.34273 19.6571C6.84977 19.7093 7.2817 19.7378 7.76057 19.7378C14.6902 19.7378 15.3099 14.2429 15.3099 10.6667C15.3099 4.84418 14.2113 1.05429 8.00471 1.05429C7.30987 1.05429 6.69485 1.08279 6.34743 1.13503V19.6571H6.34273Z" fill="black"/>
<path d="M26.6057 13.7823H20.4508V13.2931H26.6057V7.0384H27.1409V13.2931H33.2958V13.7823H27.1409V20.0371H26.6057V13.7823Z" fill="black"/>
<path d="M72 18.3843C72 17.3252 71.1408 16.4608 70.0986 16.4608C69.0516 16.4608 68.1972 17.3252 68.1972 18.3843C68.1972 19.4433 69.0516 20.3077 70.0986 20.3077C71.1455 20.3077 72 19.4433 72 18.3843Z" fill="black"/>
</svg>
